<svg width="73" height="81" viewBox="0 0 73 81" fill="none" xmlns="http://www.w3.org/2000/svg">
<g filter="url(#filter0_d_9_22)">
<path d="M68.4813 25.6102H47.0528V72.4102H39.9099V50.8102H32.7671V72.4102H25.6242V25.6102H4.19563V18.4102H68.4813V25.6102ZM36.3385 0.410156C38.2329 0.410156 40.0497 1.16873 41.3893 2.51899C42.7288 3.86925 43.4813 5.7006 43.4813 7.61016C43.4813 9.51971 42.7288 11.3511 41.3893 12.7013C40.0497 14.0516 38.2329 14.8102 36.3385 14.8102C34.4441 14.8102 32.6273 14.0516 31.2877 12.7013C29.9482 11.3511 29.1956 9.51971 29.1956 7.61016C29.1956 3.61416 32.3742 0.410156 36.3385 0.410156Z" fill="#EC5863"/>
</g>
<defs>
<filter id="filter0_d_9_22" x="0.195633" y="0.410156" width="72.2857" height="80" filterUnits="userSpaceOnUse" color-interpolation-filters="sRGB">
<feFlood flood-opacity="0" result="BackgroundImageFix"/>
<feColorMatrix in="SourceAlpha" type="matrix" values="0 0 0 0 0 0 0 0 0 0 0 0 0 0 0 0 0 0 127 0" result="hardAlpha"/>
<feOffset dy="4"/>
<feGaussianBlur stdDeviation="2"/>
<feComposite in2="hardAlpha" operator="out"/>
<feColorMatrix type="matrix" values="0 0 0 0 0 0 0 0 0 0 0 0 0 0 0 0 0 0 0.25 0"/>
<feBlend mode="normal" in2="BackgroundImageFix" result="effect1_dropShadow_9_22"/>
<feBlend mode="normal" in="SourceGraphic" in2="effect1_dropShadow_9_22" result="shape"/>
</filter>
</defs>
</svg>
